<svg width="40" height="40" viewBox="0 0 40 40" fill="none" xmlns="http://www.w3.org/2000/svg">
    <path d="M17.0222 6.34133C17.7796 3.21956 22.2204 3.21956 22.9778 6.34133C23.0914 6.81031 23.3142 7.24583 23.6279 7.61244C23.9417 7.97906 24.3376 8.26641 24.7834 8.4511C25.2292 8.6358 25.7123 8.71262 26.1934 8.67532C26.6745 8.63802 27.14 8.48765 27.552 8.23644C30.2951 6.56533 33.4364 9.70489 31.7653 12.4498C31.5145 12.8616 31.3644 13.3268 31.3271 13.8076C31.2899 14.2884 31.3667 14.7711 31.5512 15.2167C31.7356 15.6622 32.0227 16.0579 32.3889 16.3716C32.7551 16.6854 33.1901 16.9083 33.6587 17.0222C36.7804 17.7796 36.7804 22.2204 33.6587 22.9778C33.1897 23.0914 32.7542 23.3142 32.3876 23.6279C32.0209 23.9417 31.7336 24.3376 31.5489 24.7834C31.3642 25.2292 31.2874 25.7123 31.3247 26.1934C31.362 26.6745 31.5124 27.14 31.7636 27.552C33.4347 30.2951 30.2951 33.4364 27.5502 31.7653C27.1384 31.5145 26.6732 31.3644 26.1924 31.3271C25.7116 31.2899 25.2289 31.3667 24.7833 31.5512C24.3378 31.7356 23.9421 32.0227 23.6284 32.3889C23.3146 32.7551 23.0917 33.1901 22.9778 33.6587C22.2204 36.7804 17.7796 36.7804 17.0222 33.6587C16.9086 33.1897 16.6858 32.7542 16.3721 32.3876C16.0583 32.0209 15.6624 31.7336 15.2166 31.5489C14.7708 31.3642 14.2877 31.2874 13.8066 31.3247C13.3255 31.362 12.86 31.5124 12.448 31.7636C9.70489 33.4347 6.56356 30.2951 8.23467 27.5502C8.48551 27.1384 8.63565 26.6732 8.67286 26.1924C8.71008 25.7116 8.63332 25.2289 8.44884 24.7833C8.26436 24.3378 7.97735 23.9421 7.61115 23.6284C7.24495 23.3146 6.80989 23.0917 6.34133 22.9778C3.21956 22.2204 3.21956 17.7796 6.34133 17.0222C6.81031 16.9086 7.24583 16.6858 7.61244 16.3721C7.97906 16.0583 8.26641 15.6624 8.4511 15.2166C8.6358 14.7708 8.71262 14.2877 8.67532 13.8066C8.63802 13.3255 8.48765 12.86 8.23644 12.448C6.56533 9.70489 9.70489 6.56356 12.4498 8.23467C14.2276 9.31556 16.5316 8.35911 17.0222 6.34133Z"
          stroke="currentColor" stroke-width="2.75" stroke-linecap="round" stroke-linejoin="round"/>
    <path d="M20 25.3333C22.9455 25.3333 25.3333 22.9455 25.3333 20C25.3333 17.0545 22.9455 14.6667 20 14.6667C17.0545 14.6667 14.6667 17.0545 14.6667 20C14.6667 22.9455 17.0545 25.3333 20 25.3333Z"
          stroke="currentColor" stroke-width="2.75" stroke-linecap="round" stroke-linejoin="round"/>
</svg>
