<svg width="44" height="44" viewBox="0 0 44 44" fill="none" xmlns="http://www.w3.org/2000/svg">
<path d="M7.33398 12.8333H36.6673" stroke="black" stroke-width="2.75" stroke-linecap="round" stroke-linejoin="round"/>
<path d="M18.334 20.1667V31.1667" stroke="black" stroke-width="2.75" stroke-linecap="round" stroke-linejoin="round"/>
<path d="M25.666 20.1667V31.1667" stroke="black" stroke-width="2.75" stroke-linecap="round" stroke-linejoin="round"/>
<path d="M9.16602 12.8333L10.9993 34.8333C10.9993 35.8057 11.3857 36.7383 12.0733 37.426C12.7609 38.1136 13.6936 38.4999 14.666 38.4999H29.3327C30.3051 38.4999 31.2378 38.1136 31.9254 37.426C32.613 36.7383 32.9993 35.8057 32.9993 34.8333L34.8327 12.8333" stroke="black" stroke-width="2.75" stroke-linecap="round" stroke-linejoin="round"/>
<path d="M16.5 12.8333V7.33333C16.5 6.8471 16.6932 6.38079 17.037 6.03697C17.3808 5.69315 17.8471 5.5 18.3333 5.5H25.6667C26.1529 5.5 26.6192 5.69315 26.963 6.03697C27.3068 6.38079 27.5 6.8471 27.5 7.33333V12.8333" stroke="black" stroke-width="2.75" stroke-linecap="round" stroke-linejoin="round"/>
</svg>
